<mxfile host="app.diagrams.net" modified="2024-05-23T16:03:19.620Z" agent="Mozilla/5.0 (Windows NT 10.0; Win64; x64) AppleWebKit/537.36 (KHTML, like Gecko) Chrome/124.0.0.0 Safari/537.36" etag="yzXkWpjkJPMH0J8pcqzr" version="24.4.6" type="github">
  <diagram name="Page-1" id="UzpHlQEHdBbeiQkt2dOt">
    <mxGraphModel dx="1713" dy="672" grid="1" gridSize="10" guides="1" tooltips="1" connect="1" arrows="1" fold="1" page="1" pageScale="1" pageWidth="850" pageHeight="1100" math="0" shadow="0">
      <root>
        <mxCell id="0" />
        <mxCell id="1" parent="0" />
        <mxCell id="MGdHbfHo3SbQaK2n2D3C-2" style="edgeStyle=orthogonalEdgeStyle;rounded=0;orthogonalLoop=1;jettySize=auto;html=1;exitX=1;exitY=0.5;exitDx=0;exitDy=0;entryX=0;entryY=0.5;entryDx=0;entryDy=0;" parent="1" source="9NYJH5eUAhIsgToiFgUX-1" target="9NYJH5eUAhIsgToiFgUX-2" edge="1">
          <mxGeometry relative="1" as="geometry" />
        </mxCell>
        <mxCell id="9NYJH5eUAhIsgToiFgUX-1" value="Intro w/ dialouge / no tut" style="rounded=0;whiteSpace=wrap;html=1;fillColor=#A6A6A6;" parent="1" vertex="1">
          <mxGeometry y="400" width="120" height="60" as="geometry" />
        </mxCell>
        <mxCell id="9NYJH5eUAhIsgToiFgUX-2" value="Open Map 2 explore/ meet enemys + get starter companion" style="rounded=0;whiteSpace=wrap;html=1;fillColor=#C9C9C9;" parent="1" vertex="1">
          <mxGeometry x="170" y="340" width="120" height="60" as="geometry" />
        </mxCell>
        <mxCell id="qZTBvusk5uYlHYiv0qSW-6" style="edgeStyle=orthogonalEdgeStyle;rounded=0;orthogonalLoop=1;jettySize=auto;html=1;exitX=1;exitY=0.5;exitDx=0;exitDy=0;" parent="1" source="9NYJH5eUAhIsgToiFgUX-4" target="NMX02CVuEJwhPitkk1mA-1" edge="1">
          <mxGeometry relative="1" as="geometry" />
        </mxCell>
        <mxCell id="9NYJH5eUAhIsgToiFgUX-4" value="Meet the boss / defeat it" style="rounded=0;whiteSpace=wrap;html=1;fillColor=#B5B5B5;" parent="1" vertex="1">
          <mxGeometry x="510" y="150" width="120" height="60" as="geometry" />
        </mxCell>
        <mxCell id="9NYJH5eUAhIsgToiFgUX-6" value="" style="endArrow=classic;html=1;rounded=0;exitX=1;exitY=0.5;exitDx=0;exitDy=0;entryX=0;entryY=0.5;entryDx=0;entryDy=0;" parent="1" source="9NYJH5eUAhIsgToiFgUX-2" target="9NYJH5eUAhIsgToiFgUX-3" edge="1">
          <mxGeometry width="50" height="50" relative="1" as="geometry">
            <mxPoint x="370" y="220" as="sourcePoint" />
            <mxPoint x="450" y="370" as="targetPoint" />
          </mxGeometry>
        </mxCell>
        <mxCell id="9NYJH5eUAhIsgToiFgUX-7" value="" style="endArrow=classic;html=1;rounded=0;exitX=1;exitY=0.5;exitDx=0;exitDy=0;entryX=0;entryY=0.5;entryDx=0;entryDy=0;" parent="1" source="9NYJH5eUAhIsgToiFgUX-3" target="9NYJH5eUAhIsgToiFgUX-4" edge="1">
          <mxGeometry width="50" height="50" relative="1" as="geometry">
            <mxPoint x="400" y="420" as="sourcePoint" />
            <mxPoint x="450" y="370" as="targetPoint" />
          </mxGeometry>
        </mxCell>
        <mxCell id="NMX02CVuEJwhPitkk1mA-1" value="End" style="rounded=0;whiteSpace=wrap;html=1;strokeColor=#707070;fillColor=#919191;" parent="1" vertex="1">
          <mxGeometry x="670" y="150" width="120" height="60" as="geometry" />
        </mxCell>
        <mxCell id="NMX02CVuEJwhPitkk1mA-2" value="" style="endArrow=none;dashed=1;html=1;dashPattern=1 3;strokeWidth=2;rounded=0;entryX=0.5;entryY=0;entryDx=0;entryDy=0;exitX=0.5;exitY=0;exitDx=0;exitDy=0;" parent="1" source="NMX02CVuEJwhPitkk1mA-3" target="9NYJH5eUAhIsgToiFgUX-1" edge="1">
          <mxGeometry width="50" height="50" relative="1" as="geometry">
            <mxPoint x="110" y="240" as="sourcePoint" />
            <mxPoint x="440" y="340" as="targetPoint" />
          </mxGeometry>
        </mxCell>
        <mxCell id="NMX02CVuEJwhPitkk1mA-3" value="Print Intro" style="rounded=1;whiteSpace=wrap;html=1;" parent="1" vertex="1">
          <mxGeometry x="10" y="350" width="70" height="30" as="geometry" />
        </mxCell>
        <mxCell id="NMX02CVuEJwhPitkk1mA-4" value="" style="endArrow=none;dashed=1;html=1;dashPattern=1 3;strokeWidth=2;rounded=0;" parent="1" source="NMX02CVuEJwhPitkk1mA-5" target="NMX02CVuEJwhPitkk1mA-3" edge="1">
          <mxGeometry width="50" height="50" relative="1" as="geometry">
            <mxPoint x="110" y="290" as="sourcePoint" />
            <mxPoint x="160" y="240" as="targetPoint" />
            <Array as="points">
              <mxPoint x="85" y="340" />
            </Array>
          </mxGeometry>
        </mxCell>
        <mxCell id="NMX02CVuEJwhPitkk1mA-5" value="Ask to if P want to open inventory (Y/N)" style="rounded=1;whiteSpace=wrap;html=1;" parent="1" vertex="1">
          <mxGeometry x="30" y="280" width="110" height="60" as="geometry" />
        </mxCell>
        <mxCell id="NMX02CVuEJwhPitkk1mA-6" value="" style="endArrow=classic;html=1;rounded=0;exitX=0.5;exitY=0;exitDx=0;exitDy=0;entryX=0.5;entryY=0;entryDx=0;entryDy=0;strokeColor=#CC0000;" parent="1" source="NMX02CVuEJwhPitkk1mA-5" target="NMX02CVuEJwhPitkk1mA-8" edge="1">
          <mxGeometry width="50" height="50" relative="1" as="geometry">
            <mxPoint x="390" y="390" as="sourcePoint" />
            <mxPoint x="140" y="310" as="targetPoint" />
          </mxGeometry>
        </mxCell>
        <mxCell id="NMX02CVuEJwhPitkk1mA-7" value="" style="endArrow=classic;html=1;rounded=0;entryX=0.5;entryY=0;entryDx=0;entryDy=0;strokeColor=#00FF00;exitX=0.5;exitY=0;exitDx=0;exitDy=0;" parent="1" source="NMX02CVuEJwhPitkk1mA-5" target="NMX02CVuEJwhPitkk1mA-9" edge="1">
          <mxGeometry width="50" height="50" relative="1" as="geometry">
            <mxPoint x="390" y="390" as="sourcePoint" />
            <mxPoint x="210" y="320" as="targetPoint" />
          </mxGeometry>
        </mxCell>
        <mxCell id="NMX02CVuEJwhPitkk1mA-8" value="P=N&lt;div&gt;No change and open map / next sequence&lt;/div&gt;" style="rounded=1;whiteSpace=wrap;html=1;" parent="1" vertex="1">
          <mxGeometry x="-40" y="200" width="110" height="65" as="geometry" />
        </mxCell>
        <mxCell id="NMX02CVuEJwhPitkk1mA-9" value="P=Y" style="rounded=1;whiteSpace=wrap;html=1;" parent="1" vertex="1">
          <mxGeometry x="90" y="245" width="90" height="20" as="geometry" />
        </mxCell>
        <mxCell id="NMX02CVuEJwhPitkk1mA-16" style="edgeStyle=orthogonalEdgeStyle;rounded=0;orthogonalLoop=1;jettySize=auto;html=1;exitX=1;exitY=0.5;exitDx=0;exitDy=0;entryX=0.5;entryY=0;entryDx=0;entryDy=0;" parent="1" source="NMX02CVuEJwhPitkk1mA-13" target="NMX02CVuEJwhPitkk1mA-15" edge="1">
          <mxGeometry relative="1" as="geometry" />
        </mxCell>
        <mxCell id="NMX02CVuEJwhPitkk1mA-13" value="Open Inventory / No items at first / 10 coins" style="rounded=1;whiteSpace=wrap;html=1;" parent="1" vertex="1">
          <mxGeometry x="70" y="130" width="100" height="60" as="geometry" />
        </mxCell>
        <mxCell id="NMX02CVuEJwhPitkk1mA-14" style="edgeStyle=orthogonalEdgeStyle;rounded=0;orthogonalLoop=1;jettySize=auto;html=1;exitX=0.5;exitY=0;exitDx=0;exitDy=0;entryX=0.5;entryY=1;entryDx=0;entryDy=0;" parent="1" source="NMX02CVuEJwhPitkk1mA-9" target="NMX02CVuEJwhPitkk1mA-13" edge="1">
          <mxGeometry relative="1" as="geometry" />
        </mxCell>
        <mxCell id="NMX02CVuEJwhPitkk1mA-15" value="next sequence" style="rounded=1;whiteSpace=wrap;html=1;" parent="1" vertex="1">
          <mxGeometry x="180" y="170" width="100" height="30" as="geometry" />
        </mxCell>
        <mxCell id="NMX02CVuEJwhPitkk1mA-17" value="" style="endArrow=none;dashed=1;html=1;dashPattern=1 3;strokeWidth=2;rounded=0;entryX=0.5;entryY=1;entryDx=0;entryDy=0;exitX=0.5;exitY=0;exitDx=0;exitDy=0;" parent="1" source="NMX02CVuEJwhPitkk1mA-18" target="9NYJH5eUAhIsgToiFgUX-2" edge="1">
          <mxGeometry width="50" height="50" relative="1" as="geometry">
            <mxPoint x="340" y="260" as="sourcePoint" />
            <mxPoint x="440" y="340" as="targetPoint" />
          </mxGeometry>
        </mxCell>
        <mxCell id="MGdHbfHo3SbQaK2n2D3C-4" style="edgeStyle=orthogonalEdgeStyle;rounded=0;orthogonalLoop=1;jettySize=auto;html=1;exitX=0;exitY=1;exitDx=0;exitDy=0;entryX=0.5;entryY=0;entryDx=0;entryDy=0;strokeColor=#7F00FF;" parent="1" source="NMX02CVuEJwhPitkk1mA-18" target="NMX02CVuEJwhPitkk1mA-23" edge="1">
          <mxGeometry relative="1" as="geometry" />
        </mxCell>
        <mxCell id="MGdHbfHo3SbQaK2n2D3C-5" style="edgeStyle=orthogonalEdgeStyle;rounded=0;orthogonalLoop=1;jettySize=auto;html=1;exitX=0.25;exitY=1;exitDx=0;exitDy=0;strokeColor=#003366;" parent="1" source="NMX02CVuEJwhPitkk1mA-18" target="NMX02CVuEJwhPitkk1mA-20" edge="1">
          <mxGeometry relative="1" as="geometry" />
        </mxCell>
        <mxCell id="MGdHbfHo3SbQaK2n2D3C-6" style="edgeStyle=orthogonalEdgeStyle;rounded=0;orthogonalLoop=1;jettySize=auto;html=1;exitX=0.5;exitY=1;exitDx=0;exitDy=0;entryX=0.5;entryY=0;entryDx=0;entryDy=0;strokeColor=#9933FF;" parent="1" source="NMX02CVuEJwhPitkk1mA-18" target="NMX02CVuEJwhPitkk1mA-22" edge="1">
          <mxGeometry relative="1" as="geometry" />
        </mxCell>
        <mxCell id="MGdHbfHo3SbQaK2n2D3C-8" style="edgeStyle=orthogonalEdgeStyle;rounded=0;orthogonalLoop=1;jettySize=auto;html=1;exitX=1;exitY=0.5;exitDx=0;exitDy=0;entryX=0;entryY=0.5;entryDx=0;entryDy=0;strokeColor=#003366;" parent="1" source="NMX02CVuEJwhPitkk1mA-18" target="NMX02CVuEJwhPitkk1mA-21" edge="1">
          <mxGeometry relative="1" as="geometry" />
        </mxCell>
        <mxCell id="NMX02CVuEJwhPitkk1mA-18" value="Open map w/ Hospital, Shop, Random Encounters, Boss" style="rounded=1;whiteSpace=wrap;html=1;" parent="1" vertex="1">
          <mxGeometry x="200" y="410" width="120" height="60" as="geometry" />
        </mxCell>
        <mxCell id="MGdHbfHo3SbQaK2n2D3C-23" style="edgeStyle=orthogonalEdgeStyle;rounded=0;orthogonalLoop=1;jettySize=auto;html=1;exitX=0.5;exitY=1;exitDx=0;exitDy=0;entryX=0.5;entryY=0;entryDx=0;entryDy=0;strokeColor=#CC0000;" parent="1" source="NMX02CVuEJwhPitkk1mA-19" target="MGdHbfHo3SbQaK2n2D3C-22" edge="1">
          <mxGeometry relative="1" as="geometry" />
        </mxCell>
        <mxCell id="MGdHbfHo3SbQaK2n2D3C-29" style="edgeStyle=orthogonalEdgeStyle;rounded=0;orthogonalLoop=1;jettySize=auto;html=1;exitX=0.5;exitY=1;exitDx=0;exitDy=0;strokeColor=#00CC00;" parent="1" source="NMX02CVuEJwhPitkk1mA-19" target="MGdHbfHo3SbQaK2n2D3C-28" edge="1">
          <mxGeometry relative="1" as="geometry" />
        </mxCell>
        <mxCell id="NMX02CVuEJwhPitkk1mA-19" value="Ask if dialogue (Y/N)" style="rounded=1;whiteSpace=wrap;html=1;" parent="1" vertex="1">
          <mxGeometry x="220" y="590" width="90" height="40" as="geometry" />
        </mxCell>
        <mxCell id="NMX02CVuEJwhPitkk1mA-20" value="(4)Encounter &quot;B&quot;" style="rounded=1;whiteSpace=wrap;html=1;" parent="1" vertex="1">
          <mxGeometry x="310" y="520" width="110" height="50" as="geometry" />
        </mxCell>
        <mxCell id="MGdHbfHo3SbQaK2n2D3C-18" style="edgeStyle=orthogonalEdgeStyle;rounded=0;orthogonalLoop=1;jettySize=auto;html=1;exitX=1;exitY=0.5;exitDx=0;exitDy=0;entryX=0;entryY=0.5;entryDx=0;entryDy=0;" parent="1" source="NMX02CVuEJwhPitkk1mA-21" target="MGdHbfHo3SbQaK2n2D3C-14" edge="1">
          <mxGeometry relative="1" as="geometry" />
        </mxCell>
        <mxCell id="MGdHbfHo3SbQaK2n2D3C-58" style="edgeStyle=orthogonalEdgeStyle;rounded=0;orthogonalLoop=1;jettySize=auto;html=1;exitX=1;exitY=0.5;exitDx=0;exitDy=0;entryX=0;entryY=0.5;entryDx=0;entryDy=0;" parent="1" source="NMX02CVuEJwhPitkk1mA-21" target="MGdHbfHo3SbQaK2n2D3C-54" edge="1">
          <mxGeometry relative="1" as="geometry" />
        </mxCell>
        <mxCell id="MGdHbfHo3SbQaK2n2D3C-59" style="edgeStyle=orthogonalEdgeStyle;rounded=0;orthogonalLoop=1;jettySize=auto;html=1;exitX=1;exitY=0.5;exitDx=0;exitDy=0;entryX=0;entryY=0.5;entryDx=0;entryDy=0;" parent="1" source="NMX02CVuEJwhPitkk1mA-21" target="MGdHbfHo3SbQaK2n2D3C-55" edge="1">
          <mxGeometry relative="1" as="geometry" />
        </mxCell>
        <mxCell id="NMX02CVuEJwhPitkk1mA-21" value="(1)Starter companion" style="rounded=1;whiteSpace=wrap;html=1;" parent="1" vertex="1">
          <mxGeometry x="360" y="345" width="130" height="50" as="geometry" />
        </mxCell>
        <mxCell id="MGdHbfHo3SbQaK2n2D3C-17" style="edgeStyle=orthogonalEdgeStyle;rounded=0;orthogonalLoop=1;jettySize=auto;html=1;exitX=0.5;exitY=1;exitDx=0;exitDy=0;entryX=0;entryY=0.5;entryDx=0;entryDy=0;" parent="1" source="NMX02CVuEJwhPitkk1mA-22" target="MGdHbfHo3SbQaK2n2D3C-13" edge="1">
          <mxGeometry relative="1" as="geometry" />
        </mxCell>
        <mxCell id="NMX02CVuEJwhPitkk1mA-22" value="Encounter &quot;S&quot;" style="rounded=1;whiteSpace=wrap;html=1;" parent="1" vertex="1">
          <mxGeometry x="370" y="460" width="90" height="30" as="geometry" />
        </mxCell>
        <mxCell id="MGdHbfHo3SbQaK2n2D3C-15" style="edgeStyle=orthogonalEdgeStyle;rounded=0;orthogonalLoop=1;jettySize=auto;html=1;exitX=0.5;exitY=1;exitDx=0;exitDy=0;" parent="1" source="NMX02CVuEJwhPitkk1mA-23" target="NMX02CVuEJwhPitkk1mA-19" edge="1">
          <mxGeometry relative="1" as="geometry" />
        </mxCell>
        <mxCell id="NMX02CVuEJwhPitkk1mA-23" value="Encounter &quot;H&quot;" style="rounded=1;whiteSpace=wrap;html=1;" parent="1" vertex="1">
          <mxGeometry x="200" y="540" width="80" height="30" as="geometry" />
        </mxCell>
        <mxCell id="MGdHbfHo3SbQaK2n2D3C-25" style="edgeStyle=orthogonalEdgeStyle;rounded=0;orthogonalLoop=1;jettySize=auto;html=1;exitX=0.5;exitY=1;exitDx=0;exitDy=0;strokeColor=#FF0000;" parent="1" source="MGdHbfHo3SbQaK2n2D3C-13" target="MGdHbfHo3SbQaK2n2D3C-20" edge="1">
          <mxGeometry relative="1" as="geometry" />
        </mxCell>
        <mxCell id="MGdHbfHo3SbQaK2n2D3C-34" style="edgeStyle=orthogonalEdgeStyle;rounded=0;orthogonalLoop=1;jettySize=auto;html=1;exitX=0.5;exitY=1;exitDx=0;exitDy=0;entryX=0.5;entryY=0;entryDx=0;entryDy=0;strokeColor=#00FF00;" parent="1" source="MGdHbfHo3SbQaK2n2D3C-13" target="MGdHbfHo3SbQaK2n2D3C-33" edge="1">
          <mxGeometry relative="1" as="geometry" />
        </mxCell>
        <mxCell id="MGdHbfHo3SbQaK2n2D3C-13" value="Ask if dialogue (Y/N)" style="rounded=1;whiteSpace=wrap;html=1;" parent="1" vertex="1">
          <mxGeometry x="470" y="490" width="70" height="50" as="geometry" />
        </mxCell>
        <mxCell id="MGdHbfHo3SbQaK2n2D3C-14" value="1st choice" style="rounded=1;whiteSpace=wrap;html=1;" parent="1" vertex="1">
          <mxGeometry x="535" y="300" width="70" height="50" as="geometry" />
        </mxCell>
        <mxCell id="MGdHbfHo3SbQaK2n2D3C-20" value="&quot;N&quot;&lt;div&gt;Move on in map&lt;/div&gt;" style="rounded=1;whiteSpace=wrap;html=1;" parent="1" vertex="1">
          <mxGeometry x="420" y="590" width="80" height="60" as="geometry" />
        </mxCell>
        <mxCell id="MGdHbfHo3SbQaK2n2D3C-22" value="&quot;N&quot;&lt;div&gt;Move on in map&lt;/div&gt;" style="rounded=1;whiteSpace=wrap;html=1;" parent="1" vertex="1">
          <mxGeometry x="130" y="660" width="80" height="60" as="geometry" />
        </mxCell>
        <mxCell id="MGdHbfHo3SbQaK2n2D3C-43" style="edgeStyle=orthogonalEdgeStyle;rounded=0;orthogonalLoop=1;jettySize=auto;html=1;exitX=0.5;exitY=1;exitDx=0;exitDy=0;entryX=0.5;entryY=0;entryDx=0;entryDy=0;" parent="1" source="MGdHbfHo3SbQaK2n2D3C-28" target="MGdHbfHo3SbQaK2n2D3C-42" edge="1">
          <mxGeometry relative="1" as="geometry" />
        </mxCell>
        <mxCell id="MGdHbfHo3SbQaK2n2D3C-44" style="edgeStyle=orthogonalEdgeStyle;rounded=0;orthogonalLoop=1;jettySize=auto;html=1;exitX=0.5;exitY=1;exitDx=0;exitDy=0;entryX=0.5;entryY=0;entryDx=0;entryDy=0;" parent="1" source="MGdHbfHo3SbQaK2n2D3C-28" target="MGdHbfHo3SbQaK2n2D3C-38" edge="1">
          <mxGeometry relative="1" as="geometry" />
        </mxCell>
        <mxCell id="MGdHbfHo3SbQaK2n2D3C-28" value="&quot;Y&quot;&lt;div&gt;&lt;div&gt;NPC(Nurse) dialogue (Y/N) 4 &quot;heal&quot;&lt;/div&gt;&lt;/div&gt;" style="rounded=1;whiteSpace=wrap;html=1;" parent="1" vertex="1">
          <mxGeometry x="230" y="680" width="100" height="80" as="geometry" />
        </mxCell>
        <mxCell id="MGdHbfHo3SbQaK2n2D3C-50" style="edgeStyle=orthogonalEdgeStyle;rounded=0;orthogonalLoop=1;jettySize=auto;html=1;exitX=0.5;exitY=1;exitDx=0;exitDy=0;entryX=0.5;entryY=0;entryDx=0;entryDy=0;" parent="1" source="MGdHbfHo3SbQaK2n2D3C-33" target="MGdHbfHo3SbQaK2n2D3C-39" edge="1">
          <mxGeometry relative="1" as="geometry" />
        </mxCell>
        <mxCell id="MGdHbfHo3SbQaK2n2D3C-51" style="edgeStyle=orthogonalEdgeStyle;rounded=0;orthogonalLoop=1;jettySize=auto;html=1;exitX=0.5;exitY=1;exitDx=0;exitDy=0;" parent="1" source="MGdHbfHo3SbQaK2n2D3C-33" target="MGdHbfHo3SbQaK2n2D3C-46" edge="1">
          <mxGeometry relative="1" as="geometry" />
        </mxCell>
        <mxCell id="MGdHbfHo3SbQaK2n2D3C-33" value="&quot;Y&quot;&lt;div&gt;NPC(Merchant) dialogue (Y/N) 4 shop&lt;/div&gt;" style="rounded=1;whiteSpace=wrap;html=1;" parent="1" vertex="1">
          <mxGeometry x="515" y="575" width="110" height="70" as="geometry" />
        </mxCell>
        <mxCell id="MGdHbfHo3SbQaK2n2D3C-38" value="&quot;N&quot;&lt;div&gt;NPC &quot;Bye&quot; dialogue&lt;/div&gt;" style="rounded=1;whiteSpace=wrap;html=1;" parent="1" vertex="1">
          <mxGeometry x="160" y="800" width="120" height="60" as="geometry" />
        </mxCell>
        <mxCell id="MGdHbfHo3SbQaK2n2D3C-39" value="&quot;N&quot;&lt;div&gt;NPC &quot;Bye&quot; dialogue&lt;/div&gt;" style="rounded=1;whiteSpace=wrap;html=1;" parent="1" vertex="1">
          <mxGeometry x="445" y="680" width="120" height="60" as="geometry" />
        </mxCell>
        <mxCell id="MGdHbfHo3SbQaK2n2D3C-42" value="&quot;Y&quot;&lt;div&gt;&quot;Heal&quot; Companion full Health&lt;/div&gt;" style="rounded=1;whiteSpace=wrap;html=1;" parent="1" vertex="1">
          <mxGeometry x="300" y="800" width="120" height="60" as="geometry" />
        </mxCell>
        <mxCell id="MGdHbfHo3SbQaK2n2D3C-46" value="&quot;Y&quot;&lt;div&gt;&quot;Market / buy items w/ coins&lt;/div&gt;" style="rounded=1;whiteSpace=wrap;html=1;" parent="1" vertex="1">
          <mxGeometry x="580" y="680" width="120" height="60" as="geometry" />
        </mxCell>
        <mxCell id="MGdHbfHo3SbQaK2n2D3C-48" value="Next sequence" style="rounded=1;whiteSpace=wrap;html=1;" parent="1" vertex="1">
          <mxGeometry x="640" y="350" width="100" height="50" as="geometry" />
        </mxCell>
        <mxCell id="MGdHbfHo3SbQaK2n2D3C-54" value="2nd choice" style="rounded=1;whiteSpace=wrap;html=1;" parent="1" vertex="1">
          <mxGeometry x="535" y="350" width="70" height="50" as="geometry" />
        </mxCell>
        <mxCell id="MGdHbfHo3SbQaK2n2D3C-55" value="3rd choice" style="rounded=1;whiteSpace=wrap;html=1;" parent="1" vertex="1">
          <mxGeometry x="535" y="400" width="70" height="50" as="geometry" />
        </mxCell>
        <mxCell id="qZTBvusk5uYlHYiv0qSW-2" value="" style="endArrow=none;html=1;rounded=0;exitX=1;exitY=0.5;exitDx=0;exitDy=0;entryX=0;entryY=0.5;entryDx=0;entryDy=0;" parent="1" source="MGdHbfHo3SbQaK2n2D3C-55" target="MGdHbfHo3SbQaK2n2D3C-48" edge="1">
          <mxGeometry width="50" height="50" relative="1" as="geometry">
            <mxPoint x="640" y="470" as="sourcePoint" />
            <mxPoint x="670" y="440" as="targetPoint" />
            <Array as="points">
              <mxPoint x="630" y="425" />
            </Array>
          </mxGeometry>
        </mxCell>
        <mxCell id="qZTBvusk5uYlHYiv0qSW-4" value="" style="endArrow=none;html=1;rounded=0;exitX=1;exitY=0.5;exitDx=0;exitDy=0;entryX=0;entryY=0.5;entryDx=0;entryDy=0;" parent="1" source="MGdHbfHo3SbQaK2n2D3C-14" target="MGdHbfHo3SbQaK2n2D3C-48" edge="1">
          <mxGeometry width="50" height="50" relative="1" as="geometry">
            <mxPoint x="615" y="460" as="sourcePoint" />
            <mxPoint x="690" y="370" as="targetPoint" />
            <Array as="points">
              <mxPoint x="630" y="325" />
            </Array>
          </mxGeometry>
        </mxCell>
        <mxCell id="qZTBvusk5uYlHYiv0qSW-5" value="" style="endArrow=none;html=1;rounded=0;exitX=1;exitY=0.5;exitDx=0;exitDy=0;entryX=0;entryY=0.5;entryDx=0;entryDy=0;" parent="1" source="MGdHbfHo3SbQaK2n2D3C-54" target="MGdHbfHo3SbQaK2n2D3C-48" edge="1">
          <mxGeometry width="50" height="50" relative="1" as="geometry">
            <mxPoint x="500" y="350" as="sourcePoint" />
            <mxPoint x="550" y="300" as="targetPoint" />
          </mxGeometry>
        </mxCell>
        <mxCell id="9NYJH5eUAhIsgToiFgUX-3" value="After getting more companions they meet the boss" style="rounded=0;whiteSpace=wrap;html=1;fillColor=#8A8A8A;" parent="1" vertex="1">
          <mxGeometry x="350" y="150" width="120" height="60" as="geometry" />
        </mxCell>
      </root>
    </mxGraphModel>
  </diagram>
</mxfile>
